<svg id="图层_1" data-name="图层 1" xmlns="http://www.w3.org/2000/svg" xmlns:xlink="http://www.w3.org/1999/xlink" viewBox="0 0 1920 1080"><defs><style>.cls-1{fill-rule:evenodd;fill:url(#未命名的渐变_33);}.cls-2{fill:#f1f1f1;}</style><linearGradient id="未命名的渐变_33" x1="840.05" y1="405.85" x2="744.62" y2="683.01" gradientUnits="userSpaceOnUse"><stop offset="0.08" stop-color="#7221ed"/><stop offset="0.34" stop-color="#0054ff"/><stop offset="0.95" stop-color="#56ffff"/></linearGradient></defs><rect width="1920" height="1080"/><path class="cls-1" d="M789.14,411.38l-70.78,120-15.14,137.4h25.36l38.23-61.7H737.66l35.58-59.8-11,121.12h65.86L855,411Z"/><polygon class="cls-2" points="612.05 411 732.17 411 705.89 668.76 637.39 668.76 649.27 550.2 580.46 668.76 510.7 668.76 641.14 443.85 612.05 411"/><path class="cls-2" d="M866.69,532.65h6l8.43,23.42c1,3,2,6.09,3.1,9.13h.3c1-3,2-6.09,3-9.13l8.37-23.42h6v42.86h-4.51V550.74c0-3.63.35-8.66.58-12.41h-.23l-3.4,9.72-8.37,23.07h-3.34l-8.43-23.07-3.39-9.72h-.24c.24,3.75.59,8.78.59,12.41v24.77h-4.39Z"/><path class="cls-2" d="M912.89,564V543.89h4.74v19.5c0,6.09,1.81,8.72,6.26,8.72,3.34,0,5.74-1.7,8.9-5.56V543.89h4.74v31.62h-3.92l-.41-5H933c-3,3.45-6.15,5.8-10.54,5.8C915.87,576.27,912.89,572.05,912.89,564Z"/><path class="cls-2" d="M948.6,569.71V528.9h4.75v41.16c0,1.58.64,2.23,1.46,2.23a4.54,4.54,0,0,0,1.11-.12l.7,3.69a8.86,8.86,0,0,1-2.86.41C950.13,576.27,948.6,573.92,948.6,569.71Z"/><path class="cls-2" d="M965.82,566V547.81H961v-3.63l5-.29.53-9h4v9h8.72v3.92h-8.72v18.33c0,3.86,1.17,6.2,5,6.2a11.31,11.31,0,0,0,3.69-.82l.93,3.58a19.38,19.38,0,0,1-5.62,1.17C967.93,576.27,965.82,572.17,965.82,566Z"/><path class="cls-2" d="M985.49,533.88A3.19,3.19,0,0,1,989,530.6a3.24,3.24,0,0,1,3.45,3.28A3.3,3.3,0,0,1,989,537.1,3.24,3.24,0,0,1,985.49,533.88Zm1.06,10h4.74v31.62h-4.74Z"/><path class="cls-2" d="M1002.3,543.89h3.86l.47,4.68h.17c2.76-3,6.15-5.5,9.84-5.5,4.92,0,7.49,2.4,8.72,6.15,3.4-3.63,6.74-6.15,10.54-6.15,6.44,0,9.6,4.27,9.6,12.35v20.09h-4.8V556c0-6.09-1.93-8.78-6.14-8.78-2.58,0-5.27,1.69-8.32,5.15v23.13h-4.74V556c0-6.09-1.93-8.78-6.21-8.78-2.46,0-5.27,1.69-8.25,5.15v23.13h-4.74Z"/><path class="cls-2" d="M1053.65,559.76c0-10.31,6.85-16.69,14.11-16.69,7.9,0,12.47,5.68,12.47,14.81a14.24,14.24,0,0,1-.23,2.87h-21.61c.29,7,4.51,11.71,10.83,11.71a13.85,13.85,0,0,0,8-2.58l1.76,3.17a18.49,18.49,0,0,1-10.36,3.22C1060.32,576.27,1053.65,570.12,1053.65,559.76ZM1076,557.3c0-6.79-3-10.37-8.19-10.37-4.69,0-8.84,3.81-9.49,10.37Z"/><path class="cls-2" d="M1085.85,559.76c0-10.25,6.5-16.69,13.76-16.69,3.75,0,6.21,1.41,9.08,3.75l-.24-5.51V528.9h4.74v46.61h-3.92l-.47-3.81h-.11c-2.52,2.52-5.92,4.57-9.78,4.57C1091,576.27,1085.85,570.29,1085.85,559.76Zm22.6,8v-17.1c-2.87-2.51-5.33-3.51-8.08-3.51-5.38,0-9.54,5.21-9.54,12.59,0,7.78,3.28,12.53,9.07,12.53C1103,572.23,1105.64,570.71,1108.45,567.72Z"/><path class="cls-2" d="M1123.21,533.88a3.18,3.18,0,0,1,3.45-3.28,3.25,3.25,0,0,1,3.46,3.28,3.31,3.31,0,0,1-3.46,3.22A3.23,3.23,0,0,1,1123.21,533.88Zm1,10H1129v31.62h-4.75Z"/><path class="cls-2" d="M1138,567.37c0-6.91,6-10.31,19.61-11.83.06-4.27-1.29-8.49-6.73-8.49-3.81,0-7.21,1.82-9.61,3.51l-1.93-3.33c2.75-1.82,7.2-4.16,12.3-4.16,7.67,0,10.71,5.21,10.71,12.82v19.62h-3.92l-.41-3.87h-.18c-3,2.58-6.67,4.63-10.65,4.63C1142,576.27,1138,573.11,1138,567.37Zm19.61.64v-9.25c-11.18,1.29-15,4-15,8.32,0,3.8,2.64,5.32,5.86,5.32S1154.36,570.88,1157.58,568Z"/><path class="cls-2" d="M1205.77,562h-16l-4.39,13.53h-4.86l14.64-42.86h5.33l14.69,42.86H1210Zm-1.23-3.8-2.23-7c-1.64-4.86-3-9.49-4.45-14.52h-.23c-1.41,5.09-2.81,9.66-4.39,14.52l-2.23,7Z"/><path class="cls-2" d="M1221,543.89h3.86l.47,4.63h.17c3-3,6.33-5.45,10.66-5.45,6.61,0,9.66,4.27,9.66,12.35v20.09H1241V556c0-6.09-1.88-8.78-6.27-8.78-3.33,0-5.73,1.75-9,5.15v23.13H1221Z"/><path class="cls-2" d="M1254.37,567.37c0-6.91,6-10.31,19.61-11.83.06-4.27-1.28-8.49-6.73-8.49-3.8,0-7.2,1.82-9.6,3.51l-1.93-3.33c2.75-1.82,7.2-4.16,12.29-4.16,7.67,0,10.72,5.21,10.72,12.82v19.62h-3.93l-.41-3.87h-.17c-3,2.58-6.68,4.63-10.66,4.63C1258.35,576.27,1254.37,573.11,1254.37,567.37ZM1274,568v-9.25c-11.18,1.29-15,4-15,8.32,0,3.8,2.63,5.32,5.85,5.32S1270.76,570.88,1274,568Z"/><path class="cls-2" d="M1289.15,569.71V528.9h4.74v41.16c0,1.58.65,2.23,1.47,2.23a4.58,4.58,0,0,0,1.11-.12l.7,3.69a8.88,8.88,0,0,1-2.87.41C1290.67,576.27,1289.15,573.92,1289.15,569.71Z"/><path class="cls-2" d="M1301.92,588.68l1-3.86a7.75,7.75,0,0,0,2.46.46c3.63,0,6-3,7.38-7.14l.7-2.46-12.76-31.79h5L1312.4,562c1,2.75,2.1,6,3.16,8.9h.29c.88-2.87,1.82-6.15,2.69-8.9l5.92-18.09h4.68l-12.06,34.54c-2.11,6-5.39,10.89-11.54,10.89A9.53,9.53,0,0,1,1301.92,588.68Z"/><path class="cls-2" d="M1336.34,566V547.81h-4.8v-3.63l5-.29.53-9h4v9h8.72v3.92h-8.72v18.33c0,3.86,1.17,6.2,5,6.2a11.25,11.25,0,0,0,3.69-.82l.94,3.58a19.52,19.52,0,0,1-5.62,1.17C1338.45,576.27,1336.34,572.17,1336.34,566Z"/><path class="cls-2" d="M1356,533.88a3.18,3.18,0,0,1,3.45-3.28,3.25,3.25,0,0,1,3.46,3.28,3.31,3.31,0,0,1-3.46,3.22A3.23,3.23,0,0,1,1356,533.88Zm1,10h4.74v31.62h-4.74Z"/><path class="cls-2" d="M1370.36,559.76c0-10.6,7-16.69,15.05-16.69a13.09,13.09,0,0,1,9.25,3.81l-2.52,3.16a9.31,9.31,0,0,0-6.55-2.93c-5.92,0-10.31,5.09-10.31,12.65s4.1,12.53,10.19,12.53a11.9,11.9,0,0,0,7.67-3.22l2.11,3.16a15.19,15.19,0,0,1-10.19,4C1376.75,576.27,1370.36,570.18,1370.36,559.76Z"/><path class="cls-2" d="M1398.76,571.93l2.4-3.22c2.75,2.29,5.56,3.81,9.55,3.81,4.39,0,6.55-2.34,6.55-5.27,0-3.4-3.8-4.92-7.37-6.21-4.51-1.63-9.55-3.74-9.55-9.13,0-4.92,3.93-8.84,10.72-8.84a15.72,15.72,0,0,1,9.6,3.51l-2.28,3.11a12.2,12.2,0,0,0-7.32-2.81c-4.22,0-6.15,2.22-6.15,4.8,0,3.16,3.51,4.39,7.14,5.68,4.63,1.81,9.78,3.63,9.78,9.66,0,5-4,9.25-11.3,9.25A19,19,0,0,1,1398.76,571.93Z"/><path class="cls-2" d="M868.55,603.55h12.73v53h25.81v10.67H868.55Z"/><path class="cls-2" d="M947.62,650.88H927l-4.47,16.34H909.59L930,603.55h15l20.47,63.67H952.1Zm-2.75-9.9L943,634c-2-6.62-3.7-13.94-5.6-20.82H937c-1.64,7-3.53,14.2-5.42,20.82l-1.89,7Z"/><path class="cls-2" d="M972.92,603.55H994c13.08,0,23.06,3.79,23.06,15.66,0,5.85-3.27,11.88-8.69,13.77v.43c6.88,1.63,12,6.45,12,15.06,0,12.82-10.67,18.75-24.69,18.75H972.92Zm20.14,25.9c8.08,0,11.61-3.27,11.61-8.35,0-5.59-3.78-7.83-11.44-7.83h-7.57v16.18Zm1.46,28c8.69,0,13.42-3.1,13.42-9.73,0-6.19-4.65-8.77-13.42-8.77h-8.86v18.5Z"/><path class="cls-2" d="M1028.34,635.13c0-20.74,11.61-32.78,28.48-32.78s28.48,12.13,28.48,32.78-11.62,33.3-28.48,33.3S1028.34,655.78,1028.34,635.13Zm44,0c0-13.68-6-21.86-15.48-21.86s-15.49,8.18-15.49,21.86,6,22.29,15.49,22.29S1072.3,648.72,1072.3,635.13Z"/><path class="cls-2" d="M1132.45,667.22l-13.08-24.09h-8.86v24.09h-12.74V603.55H1120c13.34,0,23.92,4.65,23.92,19.28,0,9.55-4.81,15.48-12.13,18.32l14.89,26.07Zm-21.94-34.15h8.26c8.17,0,12.65-3.45,12.65-10.24s-4.48-9.21-12.65-9.21h-8.26Z"/><path class="cls-2" d="M1185.63,650.88H1165l-4.48,16.34h-12.9L1168,603.55h15l20.48,63.67H1190.1Zm-2.76-9.9-1.89-7c-2-6.62-3.7-13.94-5.59-20.82H1175c-1.63,7-3.52,14.2-5.42,20.82l-1.89,7Z"/><path class="cls-2" d="M1217,614.14h-17.9V603.55h48.7v10.59h-18.07v53.08H1217Z"/><path class="cls-2" d="M1252.23,635.13c0-20.74,11.62-32.78,28.48-32.78s28.48,12.13,28.48,32.78-11.61,33.3-28.48,33.3S1252.23,655.78,1252.23,635.13Zm44,0c0-13.68-6-21.86-15.49-21.86s-15.49,8.18-15.49,21.86,6,22.29,15.49,22.29S1296.2,648.72,1296.2,635.13Z"/><path class="cls-2" d="M1356.34,667.22l-13.07-24.09h-8.87v24.09h-12.73V603.55h22.2c13.34,0,23.92,4.65,23.92,19.28,0,9.55-4.82,15.48-12.13,18.32l14.88,26.07Zm-21.94-34.15h8.26c8.18,0,12.65-3.45,12.65-10.24s-4.47-9.21-12.65-9.21h-8.26Z"/><path class="cls-2" d="M1390.08,643.91,1371,603.55h13.51l6.37,15.49c1.81,4.73,3.53,9.21,5.51,14.11h.34c2-4.9,3.87-9.38,5.68-14.11l6.37-15.49H1422l-19.19,40.36v23.31h-12.73Z"/></svg>