<?xml version="1.0" encoding="utf-8"?>
<!-- Generator: Adobe Illustrator 27.0.0, SVG Export Plug-In . SVG Version: 6.00 Build 0)  -->
<svg version="1.1" id="_图层_1" xmlns="http://www.w3.org/2000/svg" xmlns:xlink="http://www.w3.org/1999/xlink" x="0px" y="0px"
	 viewBox="0 0 1650.7 1219" style="enable-background:new 0 0 1650.7 1219;" xml:space="preserve">
<style type="text/css">
	.st0{fill-rule:evenodd;clip-rule:evenodd;fill:url(#SVGID_1_);}
	.st1{fill:#F1F1F1;}
</style>
<path d="M75.3,334h1501.9c40.6,0,73.6,32.9,73.6,73.6v442.9c0,40.6-32.9,73.6-73.6,73.6H75.3c-40.6,0-73.6-32.9-73.6-73.6V407.6
	C1.7,366.9,34.7,334,75.3,334z"/>
<g>
	<g>
		
			<linearGradient id="SVGID_1_" gradientUnits="userSpaceOnUse" x1="623.6892" y1="814.1883" x2="463.2677" y2="348.2938" gradientTransform="matrix(1 0 0 -1 0 1217.89)">
			<stop  offset="8.000000e-02" style="stop-color:#7221ED"/>
			<stop  offset="0.34" style="stop-color:#0054FF"/>
			<stop  offset="0.95" style="stop-color:#56FFFF"/>
		</linearGradient>
		<path class="st0" d="M538.1,413l-119,201.7l-25.5,231h42.6l64.3-103.7h-49l59.8-100.5L492.9,845h110.7l45.2-432.6L538.1,413
			L538.1,413z"/>
		<polygon class="st1" points="240.4,412.4 442.3,412.4 398.2,845.6 283,845.6 303,646.4 187.3,845.6 70.1,845.6 289.3,467.6 		"/>
	</g>
	<g>
		<g>
			<path class="st1" d="M648.9,616.8h10l14.2,39.4c1.8,5.1,3.4,10.2,5.2,15.3h0.5c1.8-5.1,3.3-10.2,5-15.3l14.1-39.4h10v72h-7.6
				v-41.6c0-6.1,0.6-14.6,1-20.9H701l-5.7,16.3l-14.1,38.8h-5.6l-14.2-38.8l-5.7-16.3h-0.4c0.4,6.3,1,14.8,1,20.9v41.6h-7.4
				L648.9,616.8L648.9,616.8z"/>
			<path class="st1" d="M726.6,669.5v-33.8h8v32.8c0,10.2,3,14.7,10.5,14.7c5.6,0,9.6-2.8,15-9.3v-38.1h8v53.1h-6.6l-0.7-8.5h-0.3
				c-5,5.8-10.3,9.7-17.7,9.7C731.6,690.1,726.6,683.1,726.6,669.5L726.6,669.5z"/>
			<path class="st1" d="M786.6,679.1v-68.6h8v69.2c0,2.7,1.1,3.7,2.5,3.7c0.5,0,0.9,0,1.9-0.2l1.2,6.2c-1.3,0.4-2.6,0.7-4.8,0.7
				C789.2,690.2,786.6,686.2,786.6,679.1z"/>
			<path class="st1" d="M815.6,672.8v-30.5h-8.1v-6.1l8.4-0.5l0.9-15.1h6.8v15.1h14.7v6.6h-14.7v30.8c0,6.5,2,10.4,8.4,10.4
				c2,0,4.4-0.7,6.2-1.4l1.6,6c-3,1-6.5,2-9.5,2C819.1,690.2,815.6,683.3,815.6,672.8L815.6,672.8z"/>
			<path class="st1" d="M848.6,618.9c0-3.4,2.5-5.5,5.8-5.5c3.2,0,5.8,2.1,5.8,5.5c0,3.2-2.7,5.4-5.8,5.4
				C851.1,624.3,848.6,622.1,848.6,618.9z M850.4,635.7h8v53.1h-8V635.7z"/>
			<path class="st1" d="M876.9,635.7h6.5l0.8,7.9h0.3c4.6-5.1,10.3-9.2,16.5-9.2c8.3,0,12.6,4,14.7,10.3
				c5.7-6.1,11.3-10.3,17.7-10.3c10.8,0,16.1,7.2,16.1,20.8v33.8h-8.1v-32.8c0-10.2-3.2-14.8-10.3-14.8c-4.3,0-8.9,2.8-14,8.7v38.9
				h-8v-32.8c0-10.2-3.2-14.8-10.4-14.8c-4.1,0-8.9,2.8-13.9,8.7v38.9h-8L876.9,635.7L876.9,635.7z"/>
			<path class="st1" d="M963.2,662.4c0-17.3,11.5-28,23.7-28c13.3,0,21,9.5,21,24.9c0,1.8-0.1,3.5-0.4,4.8h-36.3
				c0.5,11.8,7.6,19.7,18.2,19.7c5.2,0,9.5-1.7,13.5-4.3l3,5.3c-4.6,3-10,5.4-17.4,5.4C974.4,690.2,963.2,679.8,963.2,662.4z
				 M1000.8,658.3c0-11.4-5.1-17.4-13.8-17.4c-7.9,0-14.9,6.4-15.9,17.4H1000.8L1000.8,658.3z"/>
			<path class="st1" d="M1017.3,662.4c0-17.2,10.9-28,23.1-28c6.3,0,10.4,2.4,15.2,6.3l-0.4-9.2v-20.9h8v78.3h-6.6l-0.8-6.4h-0.2
				c-4.2,4.2-9.9,7.7-16.4,7.7C1025.9,690.2,1017.3,680.1,1017.3,662.4L1017.3,662.4z M1055.3,675.8v-28.7c-4.8-4.2-9-5.9-13.6-5.9
				c-9.1,0-16,8.8-16,21.2c0,13.1,5.5,21.1,15.2,21.1C1046.1,683.4,1050.6,680.8,1055.3,675.8L1055.3,675.8z"/>
			<path class="st1" d="M1080.1,618.9c0-3.4,2.5-5.5,5.8-5.5c3.2,0,5.8,2.1,5.8,5.5c0,3.2-2.7,5.4-5.8,5.4
				C1082.6,624.3,1080.1,622.1,1080.1,618.9z M1081.9,635.7h8v53.1h-8V635.7z"/>
			<path class="st1" d="M1104.9,675.2c0-11.6,10.1-17.3,33-19.9c0.1-7.2-2.2-14.3-11.3-14.3c-6.4,0-12.1,3-16.1,5.9l-3.2-5.6
				c4.6-3,12.1-7,20.7-7c12.9,0,18,8.8,18,21.5v33h-6.6l-0.7-6.5h-0.3c-5.1,4.3-11.2,7.8-17.9,7.8
				C1111.6,690.1,1104.9,684.8,1104.9,675.2L1104.9,675.2z M1137.9,676.3v-15.5c-18.8,2.2-25.2,6.7-25.2,14c0,6.4,4.4,9,9.8,9
				S1132.5,681.1,1137.9,676.3z"/>
			<path class="st1" d="M1218.9,666.2H1192l-7.4,22.7h-8.2l24.6-72h9l24.7,72h-8.7L1218.9,666.2L1218.9,666.2z M1216.8,659.8
				l-3.7-11.7c-2.8-8.2-5-15.9-7.5-24.4h-0.4c-2.4,8.6-4.7,16.2-7.4,24.4l-3.7,11.7H1216.8L1216.8,659.8z"/>
			<path class="st1" d="M1244.5,635.7h6.5l0.8,7.8h0.3c5.1-5,10.6-9.2,17.9-9.2c11.1,0,16.2,7.2,16.2,20.8v33.8h-8.1v-32.8
				c0-10.2-3.2-14.8-10.5-14.8c-5.6,0-9.7,3-15.2,8.7v38.9h-8L1244.5,635.7L1244.5,635.7z"/>
			<path class="st1" d="M1300.6,675.2c0-11.6,10.1-17.3,33-19.9c0.1-7.2-2.2-14.3-11.3-14.3c-6.4,0-12.1,3-16.1,5.9l-3.2-5.6
				c4.6-3,12.1-7,20.7-7c12.9,0,18,8.8,18,21.5v33h-6.6l-0.7-6.5h-0.3c-5.1,4.3-11.2,7.8-17.9,7.8
				C1307.3,690.1,1300.6,684.8,1300.6,675.2L1300.6,675.2z M1333.6,676.3v-15.5c-18.8,2.2-25.2,6.7-25.2,14c0,6.4,4.4,9,9.8,9
				S1328.2,681.1,1333.6,676.3z"/>
			<path class="st1" d="M1359.1,679.1v-68.6h8v69.2c0,2.7,1.1,3.7,2.5,3.7c0.5,0,0.9,0,1.9-0.2l1.2,6.2c-1.3,0.4-2.6,0.7-4.8,0.7
				C1361.6,690.2,1359.1,686.2,1359.1,679.1z"/>
			<path class="st1" d="M1380.5,711l1.7-6.5c1.1,0.4,2.7,0.8,4.1,0.8c6.1,0,10-5.1,12.4-12l1.2-4.1l-21.4-53.4h8.4l11.3,30.4
				c1.7,4.6,3.5,10.1,5.3,15h0.5c1.5-4.8,3.1-10.3,4.5-15l9.9-30.4h7.9l-20.3,58.1c-3.5,10.1-9.1,18.3-19.4,18.3
				C1384.3,712.1,1382.2,711.7,1380.5,711L1380.5,711z"/>
			<path class="st1" d="M1438.4,672.8v-30.5h-8.1v-6.1l8.4-0.5l0.9-15.1h6.8v15.1h14.7v6.6h-14.7v30.8c0,6.5,2,10.4,8.4,10.4
				c2,0,4.4-0.7,6.2-1.4l1.6,6c-2.9,1-6.5,2-9.4,2C1441.9,690.2,1438.4,683.3,1438.4,672.8z"/>
			<path class="st1" d="M1471.5,618.9c0-3.4,2.5-5.5,5.8-5.5c3.2,0,5.8,2.1,5.8,5.5c0,3.2-2.7,5.4-5.8,5.4
				C1473.9,624.3,1471.5,622.1,1471.5,618.9z M1473.2,635.7h8v53.1h-8V635.7z"/>
			<path class="st1" d="M1495.6,662.4c0-17.8,11.8-28,25.3-28c7,0,11.8,3,15.6,6.4l-4.2,5.3c-3.2-3-6.6-4.9-11-4.9
				c-9.9,0-17.3,8.6-17.3,21.3s6.9,21.1,17.1,21.1c5,0,9.6-2.5,12.9-5.4l3.5,5.3c-4.7,4.2-10.6,6.8-17.1,6.8
				C1506.3,690.2,1495.6,679.9,1495.6,662.4L1495.6,662.4z"/>
			<path class="st1" d="M1543.3,682.9l4-5.4c4.6,3.8,9.3,6.4,16,6.4c7.4,0,11-3.9,11-8.9c0-5.7-6.4-8.3-12.4-10.4
				c-7.6-2.8-16-6.3-16-15.3c0-8.3,6.6-14.9,18-14.9c6.3,0,12.1,2.7,16.1,5.9l-3.8,5.2c-3.6-2.7-7.5-4.7-12.3-4.7
				c-7.1,0-10.3,3.7-10.3,8.1c0,5.3,5.9,7.4,12,9.5c7.8,3,16.4,6.1,16.4,16.2c0,8.5-6.7,15.5-19,15.5
				C1555.5,690.2,1548.4,687,1543.3,682.9L1543.3,682.9z"/>
		</g>
		<g>
			<path class="st1" d="M652.1,736h21.4v89.1h43.4v17.9h-64.8V736L652.1,736z"/>
			<path class="st1" d="M785,815.6h-34.7l-7.5,27.5H721l34.3-107h25.2l34.4,107h-22.4L785,815.6L785,815.6z M780.3,798.9l-3.2-11.7
				c-3.3-11.1-6.2-23.4-9.4-35h-0.6c-2.8,11.7-5.9,23.9-9.1,35l-3.2,11.7H780.3L780.3,798.9z"/>
			<path class="st1" d="M827.5,736H863c22,0,38.8,6.4,38.8,26.3c0,9.8-5.5,20-14.6,23.1v0.7c11.6,2.8,20.1,10.8,20.1,25.3
				c0,21.6-17.9,31.5-41.5,31.5h-38.2V736L827.5,736z M861.4,779.6c13.6,0,19.5-5.5,19.5-14c0-9.4-6.4-13.2-19.2-13.2h-12.7v27.2
				L861.4,779.6L861.4,779.6z M863.8,826.6c14.6,0,22.6-5.2,22.6-16.3c0-10.4-7.8-14.8-22.6-14.8h-14.9v31.1L863.8,826.6
				L863.8,826.6z"/>
			<path class="st1" d="M920.7,789.1c0-34.9,19.5-55.1,47.9-55.1s47.9,20.4,47.9,55.1s-19.5,56-47.9,56S920.7,823.8,920.7,789.1z
				 M994.6,789.1c0-23-10.1-36.7-26-36.7s-26,13.7-26,36.7s10.1,37.5,26,37.5S994.6,812,994.6,789.1z"/>
			<path class="st1" d="M1095.7,843.1l-22-40.5h-14.9v40.5h-21.4V736h37.3c22.4,0,40.2,7.8,40.2,32.4c0,16.1-8.1,26-20.4,30.8
				l25,43.8H1095.7L1095.7,843.1z M1058.8,785.6h13.9c13.7,0,21.3-5.8,21.3-17.2s-7.5-15.5-21.3-15.5h-13.9V785.6z"/>
			<path class="st1" d="M1185.1,815.6h-34.7l-7.5,27.5h-21.7l34.3-107h25.2l34.4,107h-22.4L1185.1,815.6L1185.1,815.6z
				 M1180.4,798.9l-3.2-11.7c-3.3-11.1-6.2-23.4-9.4-35h-0.6c-2.8,11.7-5.9,23.9-9.1,35l-3.2,11.7H1180.4L1180.4,798.9z"/>
			<path class="st1" d="M1237.7,753.8h-30.1V736h81.9v17.8h-30.4v89.2h-21.4V753.8z"/>
			<path class="st1" d="M1297,789.1c0-34.9,19.5-55.1,47.9-55.1s47.9,20.4,47.9,55.1s-19.5,56-47.9,56S1297,823.8,1297,789.1z
				 M1370.9,789.1c0-23-10.1-36.7-26-36.7s-26,13.7-26,36.7s10.1,37.5,26,37.5S1370.9,812,1370.9,789.1z"/>
			<path class="st1" d="M1472,843.1l-22-40.5h-14.9v40.5h-21.4V736h37.3c22.4,0,40.2,7.8,40.2,32.4c0,16.1-8.1,26-20.4,30.8l25,43.8
				H1472L1472,843.1z M1435.1,785.6h13.9c13.7,0,21.3-5.8,21.3-17.2s-7.5-15.5-21.3-15.5h-13.9V785.6z"/>
			<path class="st1" d="M1528.7,803.9l-32.1-67.8h22.7l10.7,26c3,7.9,5.9,15.5,9.3,23.7h0.6c3.3-8.2,6.5-15.8,9.6-23.7l10.7-26h22.3
				l-32.2,67.8v39.2h-21.4L1528.7,803.9L1528.7,803.9z"/>
		</g>
	</g>
</g>
</svg>
