<?xml version="1.0" encoding="UTF-8"?>
<svg id="_图层_1" data-name="图层 1" xmlns="http://www.w3.org/2000/svg" xmlns:xlink="http://www.w3.org/1999/xlink" viewBox="0 0 700 700">
  <defs>
    <linearGradient id="_未命名的渐变_33" data-name="未命名的渐变 33" x1="614.25" y1="42.07" x2="453.83" y2="507.96" gradientUnits="userSpaceOnUse">
      <stop offset=".08" stop-color="#7221ed"/>
      <stop offset=".34" stop-color="#0054ff"/>
      <stop offset=".95" stop-color="#56ffff"/>
    </linearGradient>
  </defs>
  <rect width="700" height="700" rx="108.88" ry="108.88"/>
  <g>
    <g>
      <path d="M528.67,51.36l-118.98,201.69-25.45,230.95h42.63l64.26-103.71h-48.99l59.81-100.53-18.45,203.6h110.71l45.17-432.64-110.71.64Z" style="fill: url(#_未命名的渐变_33); fill-rule: evenodd;"/>
      <polygon points="230.99 50.72 432.91 50.72 388.74 484 273.58 484 293.56 284.72 177.88 484 60.62 484 279.89 105.94 230.99 50.72" style="fill: #f1f1f1;"/>
    </g>
    <g>
      <g>
        <path d="M75,514.79h5.92l8.35,23.2c1.04,3.01,2.03,6.03,3.07,9.05h.29c1.04-3.01,1.97-6.03,2.96-9.05l8.29-23.2h5.91v42.45h-4.47v-24.53c0-3.6.35-8.58.58-12.29h-.23l-3.36,9.63-8.29,22.85h-3.31l-8.35-22.85-3.36-9.63h-.23c.23,3.71.58,8.7.58,12.29v24.53h-4.35v-42.45Z" style="fill: #f1f1f1;"/>
        <path d="M120.76,545.82v-19.89h4.7v19.31c0,6.03,1.8,8.64,6.2,8.64,3.31,0,5.68-1.68,8.81-5.51v-22.44h4.7v31.31h-3.88l-.41-4.99h-.17c-2.96,3.42-6.09,5.74-10.44,5.74-6.55,0-9.51-4.17-9.51-12.18Z" style="fill: #f1f1f1;"/>
        <path d="M156.13,551.5v-40.42h4.7v40.77c0,1.57.64,2.2,1.45,2.2.29,0,.52,0,1.1-.12l.7,3.65c-.75.23-1.51.41-2.84.41-3.6,0-5.1-2.32-5.1-6.49Z" style="fill: #f1f1f1;"/>
        <path d="M173.18,547.79v-17.98h-4.76v-3.6l4.93-.29.52-8.87h4v8.87h8.64v3.89h-8.64v18.15c0,3.83,1.16,6.15,4.93,6.15,1.16,0,2.61-.41,3.65-.81l.93,3.54c-1.74.58-3.83,1.16-5.57,1.16-6.55,0-8.64-4.06-8.64-10.21Z" style="fill: #f1f1f1;"/>
        <path d="M192.67,516.01c0-2.03,1.45-3.25,3.42-3.25,1.86,0,3.42,1.22,3.42,3.25,0,1.86-1.57,3.19-3.42,3.19-1.97,0-3.42-1.33-3.42-3.19ZM193.71,525.93h4.7v31.31h-4.7v-31.31Z" style="fill: #f1f1f1;"/>
        <path d="M209.31,525.93h3.83l.46,4.64h.17c2.73-3.02,6.09-5.45,9.74-5.45,4.87,0,7.42,2.38,8.64,6.09,3.36-3.6,6.67-6.09,10.44-6.09,6.38,0,9.51,4.23,9.51,12.24v19.89h-4.75v-19.31c0-6.03-1.91-8.7-6.09-8.7-2.55,0-5.22,1.68-8.23,5.1v22.9h-4.7v-19.31c0-6.03-1.91-8.7-6.15-8.7-2.44,0-5.22,1.68-8.18,5.1v22.9h-4.7v-31.31Z" style="fill: #f1f1f1;"/>
        <path d="M260.17,541.64c0-10.21,6.78-16.53,13.97-16.53,7.83,0,12.35,5.62,12.35,14.67,0,1.04-.06,2.09-.23,2.84h-21.4c.29,6.96,4.47,11.6,10.73,11.6,3.07,0,5.62-.99,7.94-2.55l1.74,3.13c-2.73,1.74-5.91,3.19-10.26,3.19-8.23,0-14.84-6.09-14.84-16.35ZM282.32,539.21c0-6.73-3.02-10.26-8.12-10.26-4.64,0-8.76,3.77-9.39,10.26h17.51Z" style="fill: #f1f1f1;"/>
        <path d="M292.07,541.64c0-10.15,6.44-16.53,13.63-16.53,3.71,0,6.15,1.39,8.99,3.71l-.23-5.45v-12.29h4.7v46.16h-3.89l-.46-3.77h-.12c-2.49,2.49-5.86,4.52-9.68,4.52-7.89,0-12.93-5.91-12.93-16.35ZM314.45,549.53v-16.93c-2.84-2.49-5.28-3.48-8-3.48-5.34,0-9.45,5.16-9.45,12.47,0,7.71,3.25,12.41,8.99,12.41,3.02,0,5.68-1.51,8.47-4.47Z" style="fill: #f1f1f1;"/>
        <path d="M329.07,516.01c0-2.03,1.45-3.25,3.42-3.25,1.86,0,3.42,1.22,3.42,3.25,0,1.86-1.57,3.19-3.42,3.19-1.97,0-3.42-1.33-3.42-3.19ZM330.11,525.93h4.7v31.31h-4.7v-31.31Z" style="fill: #f1f1f1;"/>
        <path d="M343.68,549.18c0-6.84,5.97-10.21,19.43-11.71.06-4.23-1.28-8.41-6.67-8.41-3.77,0-7.13,1.8-9.51,3.48l-1.91-3.31c2.72-1.8,7.13-4.12,12.18-4.12,7.6,0,10.61,5.16,10.61,12.7v19.43h-3.89l-.41-3.83h-.17c-3.02,2.55-6.61,4.58-10.55,4.58-5.16,0-9.1-3.13-9.1-8.81ZM363.11,549.82v-9.16c-11.08,1.28-14.84,3.94-14.84,8.23,0,3.77,2.61,5.28,5.8,5.28s5.86-1.51,9.05-4.35Z" style="fill: #f1f1f1;"/>
        <path d="M410.84,543.85h-15.83l-4.35,13.4h-4.81l14.5-42.45h5.28l14.55,42.45h-5.1l-4.23-13.4ZM409.62,540.08l-2.2-6.9c-1.62-4.81-2.96-9.39-4.41-14.38h-.23c-1.39,5.05-2.78,9.57-4.35,14.38l-2.2,6.9h13.4Z" style="fill: #f1f1f1;"/>
        <path d="M425.92,525.93h3.83l.46,4.58h.17c3.01-2.96,6.26-5.39,10.55-5.39,6.55,0,9.57,4.23,9.57,12.24v19.89h-4.75v-19.31c0-6.03-1.86-8.7-6.2-8.7-3.31,0-5.68,1.74-8.93,5.1v22.9h-4.7v-31.31Z" style="fill: #f1f1f1;"/>
        <path d="M458.98,549.18c0-6.84,5.97-10.21,19.43-11.71.06-4.23-1.27-8.41-6.67-8.41-3.77,0-7.13,1.8-9.51,3.48l-1.91-3.31c2.73-1.8,7.13-4.12,12.18-4.12,7.6,0,10.61,5.16,10.61,12.7v19.43h-3.89l-.41-3.83h-.17c-3.01,2.55-6.61,4.58-10.55,4.58-5.16,0-9.1-3.13-9.1-8.81ZM478.4,549.82v-9.16c-11.08,1.28-14.84,3.94-14.84,8.23,0,3.77,2.61,5.28,5.8,5.28s5.86-1.51,9.05-4.35Z" style="fill: #f1f1f1;"/>
        <path d="M493.42,551.5v-40.42h4.7v40.77c0,1.57.64,2.2,1.45,2.2.29,0,.52,0,1.1-.12l.7,3.65c-.75.23-1.51.41-2.84.41-3.6,0-5.1-2.32-5.1-6.49Z" style="fill: #f1f1f1;"/>
        <path d="M506.07,570.29l.99-3.83c.64.23,1.56.46,2.44.46,3.6,0,5.91-3.01,7.31-7.07l.7-2.44-12.64-31.49h4.93l6.67,17.92c.99,2.73,2.09,5.97,3.13,8.81h.29c.87-2.84,1.8-6.09,2.67-8.81l5.86-17.92h4.64l-11.95,34.21c-2.09,5.97-5.33,10.79-11.42,10.79-1.39,0-2.61-.23-3.6-.64Z" style="fill: #f1f1f1;"/>
        <path d="M540.17,547.79v-17.98h-4.75v-3.6l4.93-.29.52-8.87h4v8.87h8.64v3.89h-8.64v18.15c0,3.83,1.16,6.15,4.93,6.15,1.16,0,2.61-.41,3.65-.81l.93,3.54c-1.74.58-3.83,1.16-5.57,1.16-6.55,0-8.64-4.06-8.64-10.21Z" style="fill: #f1f1f1;"/>
        <path d="M559.65,516.01c0-2.03,1.45-3.25,3.42-3.25,1.86,0,3.42,1.22,3.42,3.25,0,1.86-1.57,3.19-3.42,3.19-1.97,0-3.42-1.33-3.42-3.19ZM560.7,525.93h4.7v31.31h-4.7v-31.31Z" style="fill: #f1f1f1;"/>
        <path d="M573.86,541.64c0-10.5,6.96-16.53,14.9-16.53,4.12,0,6.96,1.74,9.16,3.77l-2.49,3.13c-1.86-1.74-3.89-2.9-6.49-2.9-5.86,0-10.21,5.05-10.21,12.53s4.06,12.41,10.09,12.41c2.96,0,5.63-1.45,7.6-3.19l2.09,3.13c-2.78,2.49-6.26,4-10.09,4-8.23,0-14.55-6.03-14.55-16.35Z" style="fill: #f1f1f1;"/>
        <path d="M601.99,553.7l2.38-3.19c2.72,2.26,5.51,3.77,9.45,3.77,4.35,0,6.49-2.32,6.49-5.22,0-3.36-3.77-4.87-7.31-6.15-4.47-1.62-9.45-3.71-9.45-9.05,0-4.87,3.89-8.76,10.61-8.76,3.71,0,7.13,1.57,9.51,3.48l-2.26,3.07c-2.15-1.57-4.41-2.78-7.25-2.78-4.18,0-6.09,2.2-6.09,4.75,0,3.13,3.48,4.35,7.07,5.63,4.58,1.8,9.68,3.6,9.68,9.57,0,4.99-3.94,9.16-11.19,9.16-4.46,0-8.7-1.86-11.66-4.29Z" style="fill: #f1f1f1;"/>
      </g>
      <g>
        <path d="M76.84,585.02h12.61v52.5h25.57v10.57h-38.18v-63.06Z" style="fill: #f1f1f1;"/>
        <path d="M155.16,631.89h-20.45l-4.43,16.19h-12.78l20.2-63.06h14.83l20.28,63.06h-13.21l-4.43-16.19ZM152.43,622.09l-1.87-6.9c-1.96-6.56-3.66-13.81-5.54-20.62h-.34c-1.62,6.9-3.49,14.06-5.37,20.62l-1.87,6.9h15Z" style="fill: #f1f1f1;"/>
        <path d="M180.22,585.02h20.88c12.95,0,22.84,3.75,22.84,15.51,0,5.79-3.24,11.76-8.61,13.63v.43c6.82,1.62,11.85,6.39,11.85,14.91,0,12.7-10.57,18.58-24.46,18.58h-22.5v-63.06ZM200.16,610.67c8.01,0,11.51-3.24,11.51-8.27,0-5.54-3.75-7.76-11.33-7.76h-7.5v16.02h7.33ZM201.61,638.37c8.61,0,13.29-3.07,13.29-9.63,0-6.14-4.6-8.69-13.29-8.69h-8.78v18.32h8.78Z" style="fill: #f1f1f1;"/>
        <path d="M235.1,616.29c0-20.54,11.5-32.47,28.21-32.47s28.21,12.02,28.21,32.47-11.51,32.98-28.21,32.98-28.21-12.53-28.21-32.98ZM278.65,616.29c0-13.55-5.97-21.65-15.34-21.65s-15.34,8.1-15.34,21.65,5.97,22.07,15.34,22.07,15.34-8.61,15.34-22.07Z" style="fill: #f1f1f1;"/>
        <path d="M338.22,648.08l-12.95-23.86h-8.78v23.86h-12.61v-63.06h21.99c13.21,0,23.69,4.6,23.69,19.09,0,9.46-4.77,15.34-12.02,18.15l14.74,25.82h-14.06ZM316.49,614.25h8.18c8.1,0,12.53-3.41,12.53-10.14s-4.43-9.12-12.53-9.12h-8.18v19.26Z" style="fill: #f1f1f1;"/>
        <path d="M390.89,631.89h-20.45l-4.43,16.19h-12.78l20.2-63.06h14.83l20.28,63.06h-13.21l-4.43-16.19ZM388.16,622.09l-1.87-6.9c-1.96-6.56-3.66-13.81-5.54-20.62h-.34c-1.62,6.9-3.49,14.06-5.37,20.62l-1.88,6.9h15Z" style="fill: #f1f1f1;"/>
        <path d="M421.91,595.5h-17.73v-10.48h48.24v10.48h-17.9v52.58h-12.61v-52.58Z" style="fill: #f1f1f1;"/>
        <path d="M456.85,616.29c0-20.54,11.51-32.47,28.21-32.47s28.21,12.02,28.21,32.47-11.5,32.98-28.21,32.98-28.21-12.53-28.21-32.98ZM500.4,616.29c0-13.55-5.97-21.65-15.34-21.65s-15.34,8.1-15.34,21.65,5.97,22.07,15.34,22.07,15.34-8.61,15.34-22.07Z" style="fill: #f1f1f1;"/>
        <path d="M559.97,648.08l-12.95-23.86h-8.78v23.86h-12.61v-63.06h21.99c13.21,0,23.69,4.6,23.69,19.09,0,9.46-4.77,15.34-12.02,18.15l14.74,25.82h-14.06ZM538.24,614.25h8.18c8.1,0,12.53-3.41,12.53-10.14s-4.43-9.12-12.53-9.12h-8.18v19.26Z" style="fill: #f1f1f1;"/>
        <path d="M593.38,624.99l-18.92-39.97h13.38l6.31,15.34c1.79,4.69,3.49,9.12,5.45,13.98h.34c1.96-4.86,3.84-9.29,5.62-13.98l6.31-15.34h13.12l-19,39.97v23.1h-12.61v-23.1Z" style="fill: #f1f1f1;"/>
      </g>
    </g>
  </g>
</svg>