<?xml version="1.0" encoding="UTF-8"?>
<svg id="_图层_1" data-name="图层 1" xmlns="http://www.w3.org/2000/svg" xmlns:xlink="http://www.w3.org/1999/xlink" viewBox="0 0 1649 590.01">
  <defs>
    <linearGradient id="grad1" x1="618.96" y1="69.71" x2="458.54" y2="535.6" gradientUnits="userSpaceOnUse">
      <stop offset=".08" stop-color="#7221ed"/>
      <stop offset=".34" stop-color="#0054ff"/>
      <stop offset=".95" stop-color="#56ffff"/>
    </linearGradient>
  </defs>
  <rect width="1649" height="590.01" rx="73.57" ry="73.57"/>
  <g>
    <g>
      <path d="M533.39,79l-118.98,201.69-25.45,230.95h42.63l64.26-103.71h-48.99l59.81-100.53-18.45,203.6h110.71l45.17-432.64-110.71.64Z" style="fill: url(#grad1); fill-rule: evenodd;"/>
      <polygon points="235.71 78.37 437.62 78.37 393.45 511.64 278.3 511.64 298.28 312.36 182.6 511.64 65.34 511.64 284.61 133.58 235.71 78.37" style="fill: #f1f1f1;"/>
    </g>
    <g>
      <path d="M650.22,282.85h10.04l14.17,39.37c1.77,5.12,3.44,10.24,5.22,15.35h.49c1.77-5.12,3.35-10.24,5.02-15.35l14.07-39.37h10.04v72.04h-7.58v-41.63c0-6.1.59-14.57.98-20.86h-.39l-5.71,16.34-14.07,38.78h-5.61l-14.17-38.78-5.71-16.34h-.39c.39,6.3.98,14.76.98,20.86v41.63h-7.38v-72.04Z" style="fill: #f1f1f1;"/>
      <path d="M727.87,335.5v-33.76h7.97v32.77c0,10.24,3.05,14.66,10.53,14.66,5.61,0,9.64-2.85,14.96-9.35v-38.09h7.97v53.14h-6.59l-.69-8.46h-.29c-5.02,5.81-10.33,9.74-17.72,9.74-11.12,0-16.14-7.08-16.14-20.67Z" style="fill: #f1f1f1;"/>
      <path d="M787.91,345.15v-68.6h7.97v69.19c0,2.66,1.08,3.74,2.46,3.74.49,0,.89,0,1.87-.2l1.18,6.2c-1.28.39-2.56.69-4.82.69-6.1,0-8.66-3.94-8.66-11.02Z" style="fill: #f1f1f1;"/>
      <path d="M816.85,338.85v-30.51h-8.07v-6.1l8.37-.49.89-15.06h6.79v15.06h14.66v6.59h-14.66v30.81c0,6.49,1.97,10.43,8.37,10.43,1.97,0,4.43-.69,6.2-1.38l1.58,6c-2.95.98-6.5,1.97-9.45,1.97-11.12,0-14.66-6.89-14.66-17.32Z" style="fill: #f1f1f1;"/>
      <path d="M849.92,284.92c0-3.44,2.46-5.51,5.81-5.51,3.15,0,5.81,2.07,5.81,5.51,0,3.15-2.66,5.41-5.81,5.41-3.35,0-5.81-2.26-5.81-5.41ZM851.69,301.75h7.97v53.14h-7.97v-53.14Z" style="fill: #f1f1f1;"/>
      <path d="M878.17,301.75h6.5l.79,7.87h.3c4.63-5.12,10.33-9.25,16.53-9.25,8.27,0,12.6,4.03,14.66,10.33,5.71-6.1,11.32-10.33,17.71-10.33,10.83,0,16.14,7.19,16.14,20.77v33.76h-8.07v-32.77c0-10.24-3.25-14.76-10.33-14.76-4.33,0-8.86,2.85-13.97,8.66v38.87h-7.97v-32.77c0-10.24-3.25-14.76-10.43-14.76-4.13,0-8.86,2.85-13.88,8.66v38.87h-7.97v-53.14Z" style="fill: #f1f1f1;"/>
      <path d="M964.49,328.42c0-17.32,11.51-28.05,23.72-28.05,13.29,0,20.96,9.55,20.96,24.9,0,1.77-.1,3.54-.39,4.82h-36.32c.49,11.81,7.58,19.68,18.21,19.68,5.22,0,9.55-1.67,13.48-4.33l2.95,5.32c-4.63,2.95-10.04,5.41-17.42,5.41-13.98,0-25.19-10.33-25.19-27.75ZM1002.08,324.28c0-11.42-5.12-17.42-13.78-17.42-7.87,0-14.86,6.4-15.94,17.42h29.72Z" style="fill: #f1f1f1;"/>
      <path d="M1018.62,328.42c0-17.22,10.92-28.05,23.13-28.05,6.3,0,10.43,2.36,15.25,6.3l-.39-9.25v-20.86h7.97v78.34h-6.59l-.79-6.4h-.2c-4.23,4.23-9.94,7.68-16.44,7.68-13.38,0-21.95-10.04-21.95-27.75ZM1056.61,341.8v-28.74c-4.82-4.23-8.96-5.9-13.58-5.9-9.05,0-16.04,8.76-16.04,21.16,0,13.09,5.51,21.06,15.25,21.06,5.12,0,9.64-2.56,14.37-7.58Z" style="fill: #f1f1f1;"/>
      <path d="M1081.42,284.92c0-3.44,2.46-5.51,5.81-5.51,3.15,0,5.81,2.07,5.81,5.51,0,3.15-2.66,5.41-5.81,5.41-3.35,0-5.81-2.26-5.81-5.41ZM1083.19,301.75h7.97v53.14h-7.97v-53.14Z" style="fill: #f1f1f1;"/>
      <path d="M1106.22,341.21c0-11.61,10.14-17.32,32.97-19.88.1-7.19-2.17-14.27-11.32-14.27-6.4,0-12.1,3.05-16.14,5.9l-3.25-5.61c4.62-3.05,12.1-6.99,20.67-6.99,12.89,0,18.01,8.76,18.01,21.55v32.97h-6.59l-.69-6.5h-.3c-5.12,4.33-11.22,7.77-17.91,7.77-8.76,0-15.45-5.31-15.45-14.96ZM1139.19,342.29v-15.55c-18.8,2.17-25.19,6.69-25.19,13.98,0,6.4,4.43,8.95,9.84,8.95s9.94-2.56,15.35-7.38Z" style="fill: #f1f1f1;"/>
      <path d="M1220.19,332.16h-26.87l-7.38,22.73h-8.17l24.6-72.04h8.96l24.7,72.04h-8.66l-7.18-22.73ZM1218.12,325.76l-3.74-11.71c-2.75-8.17-5.02-15.94-7.48-24.41h-.39c-2.36,8.56-4.72,16.24-7.38,24.41l-3.74,11.71h22.74Z" style="fill: #f1f1f1;"/>
      <path d="M1245.79,301.75h6.49l.79,7.78h.3c5.12-5.02,10.63-9.15,17.91-9.15,11.12,0,16.24,7.19,16.24,20.77v33.76h-8.07v-32.77c0-10.24-3.15-14.76-10.53-14.76-5.61,0-9.65,2.95-15.16,8.66v38.87h-7.97v-53.14Z" style="fill: #f1f1f1;"/>
      <path d="M1301.89,341.21c0-11.61,10.14-17.32,32.97-19.88.1-7.19-2.16-14.27-11.32-14.27-6.4,0-12.1,3.05-16.14,5.9l-3.25-5.61c4.63-3.05,12.1-6.99,20.67-6.99,12.89,0,18.01,8.76,18.01,21.55v32.97h-6.59l-.69-6.5h-.3c-5.12,4.33-11.22,7.77-17.91,7.77-8.76,0-15.45-5.31-15.45-14.96ZM1334.86,342.29v-15.55c-18.8,2.17-25.19,6.69-25.19,13.98,0,6.4,4.43,8.95,9.84,8.95s9.94-2.56,15.35-7.38Z" style="fill: #f1f1f1;"/>
      <path d="M1360.35,345.15v-68.6h7.97v69.19c0,2.66,1.08,3.74,2.46,3.74.49,0,.88,0,1.87-.2l1.18,6.2c-1.28.39-2.56.69-4.82.69-6.1,0-8.66-3.94-8.66-11.02Z" style="fill: #f1f1f1;"/>
      <path d="M1381.81,377.03l1.67-6.49c1.08.39,2.66.79,4.13.79,6.1,0,10.04-5.12,12.4-12.01l1.18-4.13-21.45-53.44h8.37l11.32,30.41c1.67,4.63,3.54,10.14,5.31,14.96h.49c1.48-4.82,3.05-10.33,4.53-14.96l9.94-30.41h7.87l-20.27,58.07c-3.54,10.14-9.05,18.3-19.39,18.3-2.36,0-4.43-.39-6.1-1.08Z" style="fill: #f1f1f1;"/>
      <path d="M1439.68,338.85v-30.51h-8.07v-6.1l8.37-.49.88-15.06h6.79v15.06h14.66v6.59h-14.66v30.81c0,6.49,1.97,10.43,8.37,10.43,1.97,0,4.43-.69,6.2-1.38l1.57,6c-2.95.98-6.5,1.97-9.45,1.97-11.12,0-14.66-6.89-14.66-17.32Z" style="fill: #f1f1f1;"/>
      <path d="M1472.75,284.92c0-3.44,2.46-5.51,5.81-5.51,3.15,0,5.81,2.07,5.81,5.51,0,3.15-2.66,5.41-5.81,5.41-3.35,0-5.81-2.26-5.81-5.41ZM1474.52,301.75h7.97v53.14h-7.97v-53.14Z" style="fill: #f1f1f1;"/>
      <path d="M1496.87,328.42c0-17.81,11.81-28.05,25.29-28.05,6.99,0,11.81,2.95,15.55,6.4l-4.23,5.31c-3.15-2.95-6.59-4.92-11.02-4.92-9.94,0-17.32,8.56-17.32,21.26s6.89,21.06,17.12,21.06c5.02,0,9.55-2.46,12.89-5.41l3.54,5.32c-4.72,4.23-10.63,6.79-17.12,6.79-13.98,0-24.7-10.24-24.7-27.75Z" style="fill: #f1f1f1;"/>
      <path d="M1544.6,348.89l4.04-5.41c4.62,3.84,9.35,6.4,16.04,6.4,7.38,0,11.02-3.94,11.02-8.86,0-5.71-6.4-8.27-12.4-10.43-7.58-2.76-16.04-6.3-16.04-15.35,0-8.27,6.59-14.86,18.01-14.86,6.3,0,12.1,2.66,16.14,5.9l-3.84,5.22c-3.64-2.66-7.48-4.72-12.3-4.72-7.09,0-10.33,3.74-10.33,8.07,0,5.32,5.9,7.38,12.01,9.55,7.77,3.05,16.44,6.1,16.44,16.24,0,8.46-6.69,15.55-18.99,15.55-7.58,0-14.76-3.15-19.78-7.28Z" style="fill: #f1f1f1;"/>
    </g>
    <g>
      <path d="M653.34,402.03h21.41v89.09h43.39v17.94h-64.8v-107.03Z" style="fill: #f1f1f1;"/>
      <path d="M786.26,481.58h-34.71l-7.52,27.48h-21.7l34.28-107.03h25.17l34.42,107.03h-22.42l-7.52-27.48ZM781.64,464.95l-3.18-11.72c-3.33-11.14-6.22-23.43-9.4-35h-.58c-2.75,11.72-5.93,23.86-9.11,35l-3.18,11.72h25.46Z" style="fill: #f1f1f1;"/>
      <path d="M828.79,402.03h35.44c21.98,0,38.76,6.36,38.76,26.32,0,9.83-5.5,19.96-14.61,23.14v.72c11.57,2.75,20.1,10.85,20.1,25.31,0,21.55-17.93,31.53-41.51,31.53h-38.18v-107.03ZM862.63,445.57c13.6,0,19.53-5.5,19.53-14.03,0-9.4-6.36-13.16-19.24-13.16h-12.73v27.19h12.44ZM865.09,492.58c14.61,0,22.56-5.21,22.56-16.34,0-10.41-7.81-14.75-22.56-14.75h-14.9v31.1h14.9Z" style="fill: #f1f1f1;"/>
      <path d="M921.94,455.11c0-34.86,19.53-55.1,47.87-55.1s47.87,20.39,47.87,55.1-19.53,55.97-47.87,55.97-47.87-21.26-47.87-55.97ZM995.85,455.11c0-23-10.13-36.74-26.03-36.74s-26.03,13.74-26.03,36.74,10.12,37.46,26.03,37.46,26.03-14.61,26.03-37.46Z" style="fill: #f1f1f1;"/>
      <path d="M1096.95,509.06l-21.98-40.5h-14.9v40.5h-21.41v-107.03h37.32c22.42,0,40.21,7.81,40.21,32.4,0,16.05-8.1,26.03-20.39,30.81l25.02,43.82h-23.86ZM1060.07,451.64h13.88c13.74,0,21.26-5.79,21.26-17.21s-7.52-15.48-21.26-15.48h-13.88v32.69Z" style="fill: #f1f1f1;"/>
      <path d="M1186.34,481.58h-34.71l-7.52,27.48h-21.69l34.28-107.03h25.17l34.42,107.03h-22.42l-7.52-27.48ZM1181.71,464.95l-3.18-11.72c-3.33-11.14-6.22-23.43-9.4-35h-.58c-2.75,11.72-5.93,23.86-9.11,35l-3.18,11.72h25.46Z" style="fill: #f1f1f1;"/>
      <path d="M1238.98,419.82h-30.08v-17.79h81.86v17.79h-30.37v89.24h-21.41v-89.24Z" style="fill: #f1f1f1;"/>
      <path d="M1298.29,455.11c0-34.86,19.53-55.1,47.87-55.1s47.87,20.39,47.87,55.1-19.52,55.97-47.87,55.97-47.87-21.26-47.87-55.97ZM1372.2,455.11c0-23-10.13-36.74-26.03-36.74s-26.03,13.74-26.03,36.74,10.13,37.46,26.03,37.46,26.03-14.61,26.03-37.46Z" style="fill: #f1f1f1;"/>
      <path d="M1473.3,509.06l-21.99-40.5h-14.9v40.5h-21.41v-107.03h37.32c22.42,0,40.21,7.81,40.21,32.4,0,16.05-8.1,26.03-20.39,30.81l25.02,43.82h-23.86ZM1436.42,451.64h13.89c13.74,0,21.26-5.79,21.26-17.21s-7.52-15.48-21.26-15.48h-13.89v32.69Z" style="fill: #f1f1f1;"/>
      <path d="M1530,469.87l-32.11-67.83h22.71l10.7,26.03c3.04,7.95,5.93,15.47,9.26,23.72h.58c3.33-8.25,6.51-15.77,9.55-23.72l10.7-26.03h22.27l-32.25,67.83v39.2h-21.41v-39.2Z" style="fill: #f1f1f1;"/>
    </g>
  </g>
</svg>