<?xml version="1.0" standalone="no"?><!DOCTYPE svg PUBLIC "-//W3C//DTD SVG 1.1//EN" "http://www.w3.org/Graphics/SVG/1.1/DTD/svg11.dtd"><svg t="1554195663757" class="icon" style="" viewBox="0 0 1024 1024" version="1.1" xmlns="http://www.w3.org/2000/svg" p-id="2301" xmlns:xlink="http://www.w3.org/1999/xlink" width="200" height="200"><defs><style type="text/css"></style></defs><path d="M788.48 868.352c-10.24 0-20.48-7.168-23.552-18.432-57.344-178.176-57.344-180.224-57.344-182.272 0-6.144 4.096-10.24 10.24-10.24 5.12 0 9.216 4.096 10.24 8.192 2.048 8.192 34.816 110.592 56.32 178.176 1.024 3.072 3.072 4.096 4.096 4.096 1.024 0 3.072-2.048 4.096-4.096 22.528-67.584 55.296-169.984 57.344-178.176 1.024-5.12 5.12-8.192 10.24-8.192 6.144 0 10.24 4.096 10.24 10.24 0 2.048 0 4.096-58.368 183.296-3.072 10.24-12.288 17.408-23.552 17.408z m-60.416-200.704z" fill="#231F20" p-id="2302"></path><path d="M820.224 800.768h-63.488c-6.144 0-10.24-4.096-10.24-10.24s4.096-10.24 10.24-10.24h63.488c6.144 0 10.24 4.096 10.24 10.24s-4.096 10.24-10.24 10.24zM595.968 872.448H190.464c-17.408 0-36.864-14.336-36.864-34.816V186.368c0-20.48 19.456-34.816 36.864-34.816h309.248c3.072 0 5.12 1.024 7.168 3.072l119.808 120.832c2.048 2.048 3.072 4.096 3.072 7.168v555.008c0 9.216-4.096 17.408-10.24 24.576-6.144 6.144-14.336 10.24-23.552 10.24zM190.464 172.032c-8.192 0-16.384 7.168-16.384 14.336v651.264c0 7.168 8.192 14.336 16.384 14.336h405.504c4.096 0 7.168-1.024 10.24-4.096 3.072-3.072 4.096-6.144 4.096-10.24V286.72L496.64 172.032H190.464z" fill="#231F20" p-id="2303"></path><path d="M619.52 292.864H500.736c-6.144 0-10.24-4.096-10.24-10.24V161.792c0-6.144 4.096-10.24 10.24-10.24s10.24 4.096 10.24 10.24v110.592h108.544c6.144 0 10.24 4.096 10.24 10.24s-4.096 10.24-10.24 10.24zM860.16 677.888H717.824c-6.144 0-10.24-4.096-10.24-10.24V212.992c0-31.744 25.6-58.368 58.368-58.368h47.104c15.36 0 30.72 6.144 40.96 17.408s17.408 25.6 17.408 40.96v453.632c-1.024 6.144-5.12 11.264-11.264 11.264z m-132.096-20.48H849.92V214.016c0-10.24-4.096-19.456-11.264-26.624-7.168-7.168-16.384-11.264-26.624-11.264h-47.104c-20.48 0-37.888 16.384-37.888 37.888v443.392zM379.904 413.696h-95.232c-6.144 0-10.24-4.096-10.24-10.24s4.096-10.24 10.24-10.24h95.232c6.144 0 10.24 4.096 10.24 10.24s-5.12 10.24-10.24 10.24zM500.736 509.952H283.648c-6.144 0-10.24-4.096-10.24-10.24s4.096-10.24 10.24-10.24h217.088c6.144 0 10.24 4.096 10.24 10.24s-4.096 10.24-10.24 10.24zM500.736 606.208H283.648c-6.144 0-10.24-4.096-10.24-10.24s4.096-10.24 10.24-10.24h217.088c6.144 0 10.24 4.096 10.24 10.24s-4.096 10.24-10.24 10.24zM500.736 703.488H283.648c-6.144 0-10.24-4.096-10.24-10.24s4.096-10.24 10.24-10.24h217.088c6.144 0 10.24 4.096 10.24 10.24s-4.096 10.24-10.24 10.24z" fill="#231F20" p-id="2304"></path></svg>